<svg data-testid="geist-icon" height="16" stroke-linejoin="round" style="color:currentColor" viewbox="0 0 16 16" width="16">
 <path clip-rule="evenodd" d="M14 3H2C1.72386 3 1.5 3.22386 1.5 3.5V5L14.5 5V3.5C14.5 3.22386 14.2761 3 14 3ZM1.5 12.5V6.5L14.5 6.5V12.5C14.5 12.7761 14.2761 13 14 13H2C1.72386 13 1.5 12.7761 1.5 12.5ZM2 1.5C0.895431 1.5 0 2.39543 0 3.5V12.5C0 13.6046 0.895431 14.5 2 14.5H14C15.1046 14.5 16 13.6046 16 12.5V3.5C16 2.39543 15.1046 1.5 14 1.5H2ZM4 10.75C4.41421 10.75 4.75 10.4142 4.75 10C4.75 9.58579 4.41421 9.25 4 9.25C3.58579 9.25 3.25 9.58579 3.25 10C3.25 10.4142 3.58579 10.75 4 10.75Z" fill="currentColor" fill-rule="evenodd">
 </path>
</svg>