<svg data-testid="geist-icon" height="16" stroke-linejoin="round" style="color:currentColor" viewbox="0 0 16 16" width="16">
 <path clip-rule="evenodd" d="M6 1V1.75V5C6 5.55229 5.55228 6 5 6H1.75H1V4.5H1.75H4.5V1.75V1H6ZM14.25 6H15V4.5H14.25H11.5V1.75V1H10V1.75V5C10 5.55228 10.4477 6 11 6H14.25ZM10 14.25V15H11.5V14.25V11.5H14.29H15.04V10H14.29H11C10.4477 10 10 10.4477 10 11V14.25ZM1.75 10H1V11.5H1.75H4.5V14.25V15H6V14.25V11C6 10.4477 5.55229 10 5 10H1.75Z" fill="currentColor" fill-rule="evenodd">
 </path>
</svg>