<svg data-testid="geist-icon" height="16" stroke-linejoin="round" style="color:currentColor" viewbox="0 0 16 16" width="16">
 <path clip-rule="evenodd" d="M13.5 1.5H2.5V13.5C2.5 14.0523 2.94772 14.5 3.5 14.5H12.5C13.0523 14.5 13.5 14.0523 13.5 13.5V1.5ZM2.5 0H1V1.5V13.5C1 14.8807 2.11929 16 3.5 16H12.5C13.8807 16 15 14.8807 15 13.5V1.5V0H13.5H2.5ZM9.75 4.5C9.19772 4.5 8.75 4.94772 8.75 5.5V6.5H9.75H10.5V8H9.75H8.75V10.5C8.75 11.8807 7.63071 13 6.25 13H5.5V11.5H6.25C6.80228 11.5 7.25 11.0523 7.25 10.5V8H6.25H5.5V6.5H6.25H7.25V5.5C7.25 4.11929 8.36929 3 9.75 3H10.5V4.5H9.75Z" fill="currentColor" fill-rule="evenodd">
 </path>
</svg>