<svg data-testid="geist-icon" height="16" stroke-linejoin="round" style="color:currentColor" viewbox="0 0 16 16" width="16">
 <g clip-path="url(#clip0_872_3153)">
  <path d="M16 3.6782C16 3.6782 10.6667 -0.275745 6.5409 0.636705L6.23901 0.738088C5.63524 0.940855 5.13209 1.245 4.8302 1.65054L4.62894 1.95469L3.11951 4.59065L5.73587 5.09757C6.84279 5.80725 8.25159 6.1114 9.55977 5.80725L14.1887 6.7197L16 3.6782Z" fill="#76B3E1">
  </path>
  <path d="M16 3.6782C16 3.6782 10.6667 -0.275745 6.5409 0.636705L6.23901 0.738088C5.63524 0.940855 5.13209 1.245 4.8302 1.65054L4.62894 1.95469L3.11951 4.59065L5.73587 5.09757C6.84279 5.80725 8.25159 6.1114 9.55977 5.80725L14.1887 6.7197L16 3.6782Z" fill="url(#paint0_linear_872_3153)" opacity="0.3">
  </path>
  <path d="M4.8303 3.67821L4.42779 3.77959C2.71709 4.28651 2.21395 5.90864 3.11961 7.32801C4.1259 8.64599 6.23911 9.35567 7.94981 8.84876L14.1888 6.71971C14.1888 6.71971 8.85547 2.76576 4.8303 3.67821Z" fill="#518AC8">
  </path>
  <path d="M4.8303 3.67821L4.42779 3.77959C2.71709 4.28651 2.21395 5.90864 3.11961 7.32801C4.1259 8.64599 6.23911 9.35567 7.94981 8.84876L14.1888 6.71971C14.1888 6.71971 8.85547 2.76576 4.8303 3.67821Z" fill="url(#paint1_linear_872_3153)" opacity="0.3">
  </path>
  <path d="M13.0818 8.24045C12.5184 7.53133 11.7577 7.00778 10.8972 6.73686C10.0367 6.46593 9.1155 6.45996 8.25159 6.7197L2.01258 8.74737L0 12.2958L11.2705 14.2221L13.283 10.5723C13.6856 9.86259 13.5849 9.05152 13.0818 8.24045Z" fill="url(#paint2_linear_872_3153)">
  </path>
  <path d="M11.0692 11.7889C10.5058 11.0797 9.74516 10.5562 8.88464 10.2853C8.02412 10.0143 7.10292 10.0084 6.23901 10.2681L0 12.2958C0 12.2958 5.33335 16.3511 9.45914 15.3373L9.76103 15.2359C11.4717 14.729 12.0755 13.1069 11.0692 11.7889Z" fill="url(#paint3_linear_872_3153)">
  </path>
 </g>
 <defs>
  <lineargradient gradientunits="userSpaceOnUse" id="paint0_linear_872_3153" x1="2.36479" x2="14.9287" y1="0.433938" y2="6.49387">
   <stop offset="0.1" stop-color="#76B3E1">
   </stop>
   <stop offset="0.3" stop-color="#DCF2FD">
   </stop>
   <stop offset="1" stop-color="#76B3E1">
   </stop>
  </lineargradient>
  <lineargradient gradientunits="userSpaceOnUse" id="paint1_linear_872_3153" x1="9.23786" x2="7.01391" y1="3.43489" y2="10.7862">
   <stop stop-color="#76B3E1">
   </stop>
   <stop offset="0.5" stop-color="#4377BB">
   </stop>
   <stop offset="1" stop-color="#1F3B77">
   </stop>
  </lineargradient>
  <lineargradient gradientunits="userSpaceOnUse" id="paint2_linear_872_3153" x1="1.44906" x2="14.1779" y1="6.6386" y2="15.2286">
   <stop stop-color="#315AA9">
   </stop>
   <stop offset="0.5" stop-color="#518AC8">
   </stop>
   <stop offset="1" stop-color="#315AA9">
   </stop>
  </lineargradient>
  <lineargradient gradientunits="userSpaceOnUse" id="paint3_linear_872_3153" x1="7.1648" x2="1.98132" y1="7.68285" y2="26.5509">
   <stop stop-color="#4377BB">
   </stop>
   <stop offset="0.5" stop-color="#1A336B">
   </stop>
   <stop offset="1" stop-color="#1A336B">
   </stop>
  </lineargradient>
  <clippath id="clip0_872_3153">
   <rect fill="white" height="16" width="16">
   </rect>
  </clippath>
 </defs>
</svg>