<svg data-testid="geist-icon" height="16" stroke-linejoin="round" style="color:currentColor" viewbox="0 0 16 16" width="16">
 <path clip-rule="evenodd" d="M1.5 6.5C1.5 3.73858 3.73858 1.5 6.5 1.5C9.26142 1.5 11.5 3.73858 11.5 6.5C11.5 9.26142 9.26142 11.5 6.5 11.5C3.73858 11.5 1.5 9.26142 1.5 6.5ZM6.5 0C2.91015 0 0 2.91015 0 6.5C0 10.0899 2.91015 13 6.5 13C8.02469 13 9.42677 12.475 10.5353 11.596L13.9697 15.0303L14.5 15.5607L15.5607 14.5L15.0303 13.9697L11.596 10.5353C12.475 9.42677 13 8.02469 13 6.5C13 2.91015 10.0899 0 6.5 0ZM4.125 5.875H4.75H5.875V4.75V4.125H7.125V4.75V5.875H8.25H8.875V7.125H8.25H7.125V8.25V8.875H5.875V8.25V7.125H4.75H4.125V5.875Z" fill="currentColor" fill-rule="evenodd">
 </path>
</svg>