<svg data-testid="geist-icon" height="16" stroke-linejoin="round" style="color:currentColor" viewbox="0 0 16 16" width="16">
 <path clip-rule="evenodd" d="M8 4C7.17157 4 6.5 3.32843 6.5 2.5C6.5 1.67157 7.17157 1 8 1C8.82843 1 9.5 1.67157 9.5 2.5C9.5 3.32843 8.82843 4 8 4ZM8 9.5C7.17157 9.5 6.5 8.82843 6.5 8C6.5 7.17157 7.17157 6.5 8 6.5C8.82843 6.5 9.5 7.17157 9.5 8C9.5 8.82843 8.82843 9.5 8 9.5ZM6.5 13.5C6.5 14.3284 7.17157 15 8 15C8.82843 15 9.5 14.3284 9.5 13.5C9.5 12.6716 8.82843 12 8 12C7.17157 12 6.5 12.6716 6.5 13.5Z" fill="currentColor" fill-rule="evenodd">
 </path>
</svg>