<svg data-testid="geist-icon" height="16" stroke-linejoin="round" style="color:currentColor" viewbox="0 0 16 16" width="16">
 <path clip-rule="evenodd" d="M7.29289 1.39644C7.68342 1.00592 8.31658 1.00592 8.70711 1.39644L11.7803 4.46966L12.3107 4.99999L11.25 6.06065L10.7197 5.53032L8.75 3.56065V10.25V11H7.25V10.25V3.56065L5.28033 5.53032L4.75 6.06065L3.68934 4.99999L4.21967 4.46966L7.29289 1.39644ZM13.5 9.24999V13.5H2.5V9.24999V8.49999H1V9.24999V14C1 14.5523 1.44771 15 2 15H14C14.5523 15 15 14.5523 15 14V9.24999V8.49999H13.5V9.24999Z" fill="currentColor" fill-rule="evenodd">
 </path>
</svg>