<svg data-testid="geist-icon" height="16" stroke-linejoin="round" style="color:currentColor" viewbox="0 0 16 16" width="16">
 <path clip-rule="evenodd" d="M2.25 2C1.00736 2 0 3.00736 0 4.25V11.75C0 12.9926 1.00736 14 2.25 14H10.75H11.5V13.25V11.375L14.5 13.125L16 14V12.2634V3.73656V2L14.5 2.875L11.5 4.625V2.75V2H10.75H2.25ZM11.5 6.36156V9.63844L14.5 11.3884V4.61156L11.5 6.36156ZM10 5.5V3.5H2.25C1.83579 3.5 1.5 3.83579 1.5 4.25V11.75C1.5 12.1642 1.83579 12.5 2.25 12.5H10V10.5V5.5Z" fill="currentColor" fill-rule="evenodd">
 </path>
</svg>