<svg data-testid="geist-icon" height="16" stroke-linejoin="round" style="color:currentColor" viewbox="0 0 16 16" width="16">
 <path clip-rule="evenodd" d="M3.75 0C2.50736 0 1.5 1.00736 1.5 2.25V13.744V13.75H1.50001C1.50323 14.9899 2.50935 15.994 3.75 15.994H13H14.5V14.494V13.7296V12.994V11.494V0.75V0H13.75H3.75ZM13 11.494V1.5H3.75C3.33579 1.5 3 1.83579 3 2.25V11.622C3.23458 11.5391 3.48702 11.494 3.75 11.494H13ZM3 13.744C3 14.1582 3.33579 14.494 3.75 14.494H13V13.7296V12.994H3.75C3.33579 12.994 3 13.3298 3 13.744Z" fill="currentColor" fill-rule="evenodd">
 </path>
</svg>