<svg data-testid="geist-icon" height="16" stroke-linejoin="round" style="color:currentColor" viewbox="0 0 16 16" width="16">
 <path clip-rule="evenodd" d="M6 2.5H10C10.2761 2.5 10.5 2.72386 10.5 3V4H5.5V3C5.5 2.72386 5.72386 2.5 6 2.5ZM4 4V3C4 1.89543 4.89543 1 6 1H10C11.1046 1 12 1.89543 12 3V4H14.5H16V5.5V13.5C16 14.8807 14.8807 16 13.5 16H2.5C1.11929 16 0 14.8807 0 13.5V5.5V4H1.5H4ZM12 5.5H10.5H5.5H4H1.5V9.25H7.25V8.5H8.75V9.25L14.5 9.25V5.5H12ZM8.75 10.75L14.5 10.75V13.5C14.5 14.0523 14.0523 14.5 13.5 14.5H2.5C1.94772 14.5 1.5 14.0523 1.5 13.5V10.75H7.25V11.5H8.75V10.75Z" fill="currentColor" fill-rule="evenodd">
 </path>
</svg>