<svg data-testid="geist-icon" height="16" stroke-linejoin="round" style="color:currentColor" viewbox="0 0 16 16" width="16">
 <path clip-rule="evenodd" d="M16 8C16 12.4183 12.4183 16 8 16C3.58172 16 0 12.4183 0 8C0 3.58172 3.58172 0 8 0C12.4183 0 16 3.58172 16 8ZM10.5 11.5607L9.96967 11.0303L8 9.06066L6.03033 11.0303L5.5 11.5607L4.43934 10.5L4.96967 9.96967L6.93934 8L4.96967 6.03033L4.43934 5.5L5.5 4.43934L6.03033 4.96967L8 6.93934L9.96967 4.96967L10.5 4.43934L11.5607 5.5L11.0303 6.03033L9.06066 8L11.0303 9.96967L11.5607 10.5L10.5 11.5607Z" fill="currentColor" fill-rule="evenodd">
 </path>
</svg>