<svg data-testid="geist-icon" height="16" stroke-linejoin="round" style="color:currentColor" viewbox="0 0 16 16" width="16">
 <path clip-rule="evenodd" d="M3.74421 10.6976L3 10.5H1.5V5.5H3L3.74421 5.30236L8.5 2.58477V13.4152L3.74421 10.6976ZM3 4L8.5 0.857143L10 0V1.72763V14.2724V16L8.5 15.1429L3 12H1C0.447715 12 0 11.5523 0 11V5C0 4.44772 0.447715 4 1 4H3ZM13.9115 5.64655L13.5581 4.98506L12.2351 5.69195L12.5885 6.35345C12.8503 6.84344 12.9991 7.40324 12.9991 8C12.9991 8.59676 12.8503 9.15657 12.5885 9.64655L12.2351 10.3081L13.558 11.0149L13.9115 10.3534C14.2867 9.65129 14.4991 8.84933 14.4991 8C14.4991 7.15067 14.2867 6.34871 13.9115 5.64655Z" fill="currentColor" fill-rule="evenodd">
 </path>
</svg>