<svg data-testid="geist-icon" height="16" stroke-linejoin="round" style="color:currentColor" viewbox="0 0 16 16" width="16">
 <path clip-rule="evenodd" d="M8.55846 0.5C9.13413 0.5 9.65902 0.829456 9.90929 1.34788L15.8073 13.5653C16.1279 14.2293 15.6441 15 14.9068 15H1.09316C0.355835 15 -0.127943 14.2293 0.192608 13.5653L6.09065 1.34787C6.34092 0.829454 6.86581 0.5 7.44148 0.5H8.55846ZM8.74997 4.75V5.5V8V8.75H7.24997V8V5.5V4.75H8.74997ZM7.99997 12C8.55226 12 8.99997 11.5523 8.99997 11C8.99997 10.4477 8.55226 10 7.99997 10C7.44769 10 6.99997 10.4477 6.99997 11C6.99997 11.5523 7.44769 12 7.99997 12Z" fill="currentColor" fill-rule="evenodd">
 </path>
</svg>