<?xml version="1.0" encoding="UTF-8"?>
<!DOCTYPE svg PUBLIC "-//W3C//DTD SVG 1.1//EN" "http://www.w3.org/Graphics/SVG/1.1/DTD/svg11.dtd">
<svg xmlns="http://www.w3.org/2000/svg" version="1.1" width="201px" height="194px" style="shape-rendering:geometricPrecision; text-rendering:geometricPrecision; image-rendering:optimizeQuality; fill-rule:evenodd; clip-rule:evenodd" xmlns:xlink="http://www.w3.org/1999/xlink">
<g><path style="opacity:0.998" fill="#010101" d="M 35.5,-0.5 C 80.5,-0.5 125.5,-0.5 170.5,-0.5C 184.379,3.54471 193.546,12.5447 198,26.5C 199.055,37.1335 199.555,47.8001 199.5,58.5C 198.203,88.9139 198.203,119.081 199.5,149C 200.447,170.468 190.78,184.468 170.5,191C 125.167,191.667 79.8333,191.667 34.5,191C 19.9647,187.131 10.798,177.965 7,163.5C 6.33333,117.833 6.33333,72.1667 7,26.5C 9.10243,17.4137 13.9358,10.2471 21.5,5C 26.1677,2.82005 30.8344,0.986719 35.5,-0.5 Z M 57.5,41.5 C 87.5,41.5 117.5,41.5 147.5,41.5C 147.5,53.1667 147.5,64.8333 147.5,76.5C 142.167,76.5 136.833,76.5 131.5,76.5C 131.101,70.925 130.434,65.425 129.5,60C 116.504,59.5001 103.504,59.3334 90.5,59.5C 90.5,69.1667 90.5,78.8333 90.5,88.5C 101.167,88.5 111.833,88.5 122.5,88.5C 122.5,93.5 122.5,98.5 122.5,103.5C 111.833,103.5 101.167,103.5 90.5,103.5C 90.5,112.833 90.5,122.167 90.5,131.5C 93.8333,131.5 97.1667,131.5 100.5,131.5C 100.5,137.5 100.5,143.5 100.5,149.5C 86.1667,149.5 71.8333,149.5 57.5,149.5C 57.5,143.5 57.5,137.5 57.5,131.5C 61.1064,131.789 64.6064,131.456 68,130.5C 68.6667,107.167 68.6667,83.8333 68,60.5C 64.6064,59.5442 61.1064,59.2108 57.5,59.5C 57.5,53.5 57.5,47.5 57.5,41.5 Z"/></g>
</svg>
